<svg width="66" height="168" viewBox="0 0 66 168" fill="none" xmlns="http://www.w3.org/2000/svg">
<path d="M64.0288 -2.91177e-06L0 1.67805L0.728884 29.4897L64.7577 27.8117L64.0288 -2.91177e-06Z" fill="#E54750"/>
<path d="M63.6928 30.9067C64.3678 33.9487 64.9718 37.0317 65.3098 40.2487C65.6208 43.4617 65.7698 46.8337 64.9058 50.4487C64.4738 52.2417 63.7218 54.1007 62.5428 55.7587C61.3908 57.4337 59.8278 58.8117 58.1958 59.8377C56.5558 60.8777 54.8478 61.5757 53.1758 62.1127C51.4988 62.6467 49.8418 63.0157 48.2058 63.3037C46.0378 63.6857 43.9698 62.2377 43.5878 60.0697C43.2058 57.9017 44.6538 55.8337 46.8218 55.4517C46.9028 55.4377 46.9948 55.4247 47.0758 55.4157C49.8158 55.1127 52.4628 54.5607 54.4198 53.4967C55.3968 52.9647 56.2108 52.3437 56.8448 51.5447C57.4958 50.7617 57.9978 49.7887 58.3558 48.6457C59.0868 46.3617 59.2298 43.5457 59.1208 40.7047C59.0088 37.8467 58.6338 34.9087 58.1768 31.9697L58.1728 31.9467C57.9348 30.4137 58.9838 28.9777 60.5168 28.7397C61.9888 28.5097 63.3718 29.4747 63.6928 30.9067Z" fill="#323948"/>
<path d="M48.4328 55.4077C38.4568 52.9157 28.8408 53.9197 19.4798 57.4077C22.6578 69.3127 21.6378 78.4397 21.7658 95.9367V98.9277L48.4328 100.511C47.6418 81.0487 50.9428 67.6487 48.4328 55.4077Z" fill="#323948"/>
<path d="M49.3028 70.5147H21.5848C22.0428 77.5497 21.6868 85.1537 21.7658 95.9367V98.9277L48.4328 100.511C47.9498 88.6197 48.9898 78.9977 49.3028 70.5147Z" fill="#212B3F"/>
<path d="M48.1428 95.3917C48.8558 106.655 49.3618 117.921 49.8588 129.133C50.3548 140.347 50.9228 151.511 51.7448 162.671L44.9768 163.344C43.5668 152.156 42.4108 140.926 41.3338 129.738C40.2558 118.548 39.1748 107.409 37.8918 96.3027L48.1428 95.3917Z" fill="#212B3F"/>
<path d="M21.7628 95.2257L31.9608 97.1327C34.1688 97.5457 36.2898 96.0787 36.6838 93.8677L36.7488 94.0967C37.3438 96.2037 39.5078 97.4547 41.6308 96.9177L48.3138 95.2267C48.2538 85.7157 49.0378 77.7037 49.3038 70.5147H21.5858C22.0328 77.3927 21.7038 84.8217 21.7628 95.2257Z" fill="#323948"/>
<path d="M32.0478 97.6877L24.0808 163.592L17.3088 162.954L21.8028 96.7227L32.0478 97.6877Z" fill="#212B3F"/>
<path d="M37.0438 80.1217C44.0918 66.6257 46.3128 60.2717 42.3608 54.3647C37.3478 53.7627 32.3848 54.0447 27.4648 55.0757C24.9698 64.4307 30.0408 70.1127 37.0438 80.1217Z" fill="#001E3C"/>
<path d="M36.8768 78.3677C39.4408 71.1717 40.3518 60.8147 39.6058 54.1437C34.8578 52.7217 33.4788 52.3567 29.4708 54.7367C33.4798 63.7977 33.8478 69.0487 36.8768 78.3677Z" fill="#96DDF7"/>
<path d="M31.1368 54.6947L35.3758 57.3737L37.8018 54.1217L37.4018 44.9187L30.7368 45.1777L31.1368 54.6947Z" fill="#EDA679"/>
<path d="M37.7798 53.6097L37.4378 45.9107L30.7728 46.1697L31.1018 53.8527C33.2418 55.3447 36.2158 55.5427 37.7798 53.6097Z" fill="#CA7052"/>
<path d="M35.6028 74.1797C35.9798 75.5157 36.4098 76.9187 36.8768 78.3677C37.4648 76.7057 37.9728 74.8937 38.3978 72.9197L36.3318 60.5907L37.3388 59.3647L37.1078 59.0957C36.3698 58.2387 35.0238 58.2647 34.2338 59.1507L33.8668 59.5617L35.0688 60.7207L35.6028 74.1797Z" fill="#B12A3F"/>
<path d="M12.5128 167.646H24.2038V162.552H17.3498L12.5128 167.646Z" fill="black"/>
<path d="M56.6088 167.646H44.9188V162.552H51.7718L56.6088 167.646Z" fill="black"/>
<path d="M9.41383 32.8707C9.66483 35.8247 9.86782 38.7797 10.1288 41.6347C10.3948 44.4717 10.7598 47.2517 11.6288 49.3117C12.0268 50.3777 12.6198 51.1517 13.2968 51.8857C13.6918 52.2167 14.0108 52.5897 14.5068 52.8737L15.1788 53.3397L15.9688 53.7477C18.0888 54.8407 20.7198 55.6207 23.3928 56.2987L23.4738 56.3197C25.6088 56.8617 26.9008 59.0307 26.3588 61.1657C25.8168 63.3007 23.6478 64.5927 21.5128 64.0507C21.4248 64.0287 21.3278 63.9997 21.2428 63.9717C18.2888 62.9957 15.2868 61.9457 12.2858 60.1427L11.1688 59.4477L10.0778 58.5927C9.34083 58.0627 8.68483 57.3227 8.03083 56.6267C7.86183 56.4587 7.70983 56.2707 7.57383 56.0647L7.1518 55.4667C6.8888 55.0597 6.56482 54.6807 6.37382 54.2427L5.74082 52.9577C5.51382 52.5287 5.41881 52.0957 5.25681 51.6637C4.63981 49.9237 4.41882 48.2627 4.21482 46.6547C4.12482 45.8527 4.0898 45.0827 4.0268 44.2967C3.9838 43.5247 3.96683 42.7717 3.93583 42.0087C3.86283 38.9977 3.85883 36.0797 3.80583 33.1667V33.1577C3.77783 31.6067 5.01282 30.3257 6.56382 30.2977C8.04882 30.2727 9.28683 31.4127 9.41383 32.8707Z" fill="#323948"/>
<path d="M6.31382 35.1167C7.29182 35.1347 8.39582 34.4687 8.96382 33.4327C9.06882 33.2407 9.15681 33.0357 9.19981 32.8267C9.60681 30.8467 6.24881 29.3827 4.81581 30.3747C2.53681 31.9517 4.63682 35.0857 6.31382 35.1167Z" fill="#96DDF7"/>
<path d="M3.65782 26.7567C4.16482 26.2187 4.74481 25.7777 5.46681 25.3837C5.80081 25.2017 6.18882 25.0407 6.55382 25.1497C7.69582 25.4897 8.23781 27.3627 8.56181 28.3677C9.01381 29.7667 9.14683 31.2687 8.94283 32.7247C8.79883 33.7557 7.37781 34.0947 6.51881 33.8827C5.47181 33.6247 4.64583 32.8577 4.00783 32.0217C3.44783 31.2877 2.89983 30.4827 2.57783 29.6117C2.45083 29.2677 2.33682 28.8937 2.43282 28.5397C2.48182 28.3567 2.58484 28.1937 2.68584 28.0337C2.98984 27.5507 3.30582 27.1307 3.65782 26.7567Z" fill="#EDA679"/>
<path d="M62.0438 32.8377C61.1408 33.2137 59.8688 33.0007 58.9598 32.2457C58.7908 32.1057 58.6338 31.9477 58.5178 31.7687C57.4118 30.0767 59.9958 27.4817 61.6928 27.8767C64.3928 28.5057 63.5918 32.1927 62.0438 32.8377Z" fill="#96DDF7"/>
<path d="M61.5948 23.7717C60.9258 23.4577 60.2238 23.2607 59.4078 23.1597C59.0298 23.1127 58.6108 23.1067 58.3108 23.3417C57.4368 24.0267 57.5348 25.4987 57.5888 26.4817C57.6548 27.6987 57.8688 28.9857 58.3998 30.0957C58.7308 30.7867 59.7298 31.4647 60.5008 31.5397C61.4618 31.6327 62.4518 30.9317 62.8898 30.1097C63.2228 29.4847 63.2408 28.8107 63.3808 28.1377C63.5258 27.4377 63.6668 26.7497 63.6508 26.0307C63.6428 25.6637 63.6108 25.2747 63.3918 24.9807C63.2788 24.8287 63.1238 24.7147 62.9708 24.6027C62.5088 24.2647 62.0598 23.9897 61.5948 23.7717Z" fill="#EDA679"/>
<path d="M25.0248 43.9727C25.2058 45.3477 26.1398 46.3457 27.1108 46.2007C28.0818 46.0567 28.7228 44.8257 28.5418 43.4507C28.3608 42.0757 27.4268 41.0777 26.4558 41.2227C25.4838 41.3667 24.8438 42.5977 25.0248 43.9727Z" fill="#EDA679"/>
<path d="M43.7208 43.9727C43.5398 45.3477 42.6058 46.3457 41.6348 46.2007C40.6638 46.0567 40.0228 44.8257 40.2038 43.4507C40.3848 42.0757 41.3188 41.0777 42.2898 41.2227C43.2608 41.3667 43.9018 42.5977 43.7208 43.9727Z" fill="#EDA679"/>
<path d="M26.9148 42.0177C26.9148 46.3967 30.2558 53.3877 34.3768 53.3877C38.4978 53.3877 41.8388 46.3967 41.8388 42.0177C41.8388 37.6387 38.4978 33.7457 34.3768 33.7457C30.2558 33.7457 26.9148 37.6387 26.9148 42.0177Z" fill="#EDA679"/>
<path d="M41.6428 43.9507C41.3468 46.4617 39.7548 48.7557 37.5848 49.7987C37.5948 49.7577 37.6018 49.7117 37.6078 49.6637C37.7518 48.5147 36.8508 47.5137 35.7598 47.5167L33.0248 47.5227C32.0258 47.5247 31.2048 48.3687 31.1768 49.4297C31.1728 49.5757 31.1788 49.7127 31.1988 49.8327C29.3148 48.5917 27.7928 46.1557 27.0968 43.9507C27.0968 46.5927 27.7528 48.4717 28.3638 49.8987C28.9848 51.3507 31.9898 53.6707 34.3748 53.6707C36.9178 53.6707 39.1488 51.3187 39.8608 50.5507C40.9528 49.1707 41.6858 46.3087 41.6428 43.9507Z" fill="#8E4129"/>
<path d="M29.8528 30.1877C32.6928 31.4137 37.4398 31.2317 38.8218 32.0427L39.7318 34.0917L40.3868 33.3187C42.6668 33.5927 42.5108 37.4797 41.8338 42.1387L40.3868 37.6647C36.5008 36.6487 32.4678 36.5337 28.2348 37.6647L26.9108 42.1387C26.8778 38.3637 25.4788 33.4347 29.8528 30.1877Z" fill="#8E4129"/>
<path d="M32.7588 48.4107H35.9938C36.2118 48.4107 36.3888 48.5877 36.3888 48.8057C36.3888 49.9177 35.4878 50.8187 34.3758 50.8187C33.2638 50.8187 32.3628 49.9177 32.3628 48.8057C32.3638 48.5877 32.5408 48.4107 32.7588 48.4107Z" fill="#EDA679"/>
</svg>
