<svg width="100" height="124" viewBox="0 0 100 124" fill="none" xmlns="http://www.w3.org/2000/svg">
<path d="M84.523 57.047C85.797 56.626 87.071 56.202 88.285 55.727C89.502 55.261 90.691 54.755 91.702 54.194C91.968 54.059 92.176 53.909 92.416 53.771C92.638 53.629 92.818 53.484 93.01 53.349C93.332 53.082 93.524 52.818 93.498 52.808C93.47 52.816 93.472 52.829 93.459 52.857C93.421 52.892 93.415 52.941 93.408 52.986C93.377 53.025 93.38 53.082 93.382 53.116C93.361 53.133 93.363 53.158 93.371 53.169C93.355 53.163 93.187 52.847 92.924 52.509C92.367 51.79 91.472 50.918 90.518 50.08C89.556 49.233 88.515 48.382 87.459 47.526C85.34 45.815 83.142 44.07 80.978 42.264L80.974 42.261C79.283 40.85 79.056 38.336 80.467 36.645C81.878 34.954 84.392 34.727 86.083 36.138C86.153 36.197 86.228 36.264 86.294 36.327C88.247 38.207 90.254 40.047 92.307 41.96C93.332 42.92 94.367 43.894 95.408 44.95C96.446 46.021 97.504 47.127 98.532 48.675C99.032 49.481 99.568 50.382 99.86 51.733C99.92 52.084 99.96 52.453 99.985 52.813C99.99 53.192 99.953 53.593 99.906 53.977C99.835 54.359 99.719 54.739 99.596 55.107C99.458 55.455 99.285 55.769 99.109 56.088C98.366 57.265 97.509 57.937 96.73 58.498C96.346 58.743 95.956 58.991 95.58 59.194C95.211 59.38 94.829 59.593 94.468 59.748C93.004 60.42 91.601 60.89 90.205 61.317C88.809 61.751 87.43 62.103 86.051 62.452C84.547 62.833 83.019 61.923 82.638 60.419C82.274 58.984 83.087 57.526 84.469 57.065L84.523 57.047Z" fill="#323948"/>
<path d="M45.674 62.476L69.468 73.881C72.465 54.551 81.166 54.066 85.826 35.913C77.467 29.925 69.514 27.321 59.527 27.12C51.708 36.417 49.427 45.166 45.674 62.476Z" fill="#323948"/>
<path d="M50.078 44.73C48.531 49.609 47.228 55.307 45.674 62.476L69.468 73.881C71.884 58.293 78.01 54.955 82.735 44.73C77.647 47.054 68.394 47.708 50.078 44.73Z" fill="#001E3C"/>
<path d="M68.102 72.45C66.989 74.738 65.873 77.024 64.652 79.301C63.442 81.578 62.172 83.848 60.731 86.095C59.293 88.338 57.714 90.571 55.784 92.695C54.834 93.761 53.741 94.776 52.583 95.739C51.365 96.663 50.098 97.57 48.653 98.249C45.814 99.683 42.609 100.3 39.721 100.356C36.807 100.417 34.099 100.067 31.513 99.61C26.354 98.661 21.558 97.339 16.735 96.13L18.221 89.493C23.105 90.422 27.984 91.448 32.655 92.022C34.982 92.298 37.248 92.427 39.304 92.257C40.327 92.163 41.302 92.011 42.188 91.736C43.092 91.491 43.909 91.123 44.694 90.675C45.487 90.256 46.21 89.643 46.941 89.032C47.648 88.353 48.349 87.64 49.003 86.804C50.325 85.165 51.532 83.257 52.658 81.245C54.911 77.208 56.841 72.752 58.701 68.266L68.102 72.45Z" fill="#001E3C"/>
<path d="M56.553 64.277C56.591 64.259 56.555 64.213 56.541 64.199C56.549 64.197 56.547 64.194 56.537 64.192C56.528 64.191 56.496 64.183 56.517 64.219C56.51 64.291 56.535 64.513 56.652 64.83C56.738 65.005 56.77 65.161 56.88 65.364L57.211 65.987C57.506 66.44 57.774 66.896 58.147 67.387C59.545 69.334 61.453 71.42 63.34 73.514C67.177 77.717 71.183 82.136 74.763 86.918C76.567 89.301 78.255 91.795 79.824 94.363C80.624 95.636 81.346 96.964 82.084 98.275C82.773 99.618 83.486 100.945 84.103 102.324C86.689 107.776 88.522 113.566 89.746 119.425L83.122 120.967C81.668 115.703 79.7 110.609 77.071 105.864C76.443 104.664 75.723 103.511 75.034 102.346C74.293 101.208 73.576 100.059 72.781 98.956C71.222 96.732 69.56 94.575 67.773 92.5C64.217 88.324 60.277 84.476 56.136 80.475C55.104 79.474 54.053 78.442 53 77.368C51.945 76.283 50.881 75.168 49.819 73.87C48.766 72.582 47.679 71.175 46.746 69.186C46.287 68.195 45.877 67.043 45.662 65.698C45.591 65.386 45.575 65.018 45.558 64.659C45.542 64.3 45.534 63.939 45.536 63.579C45.569 62.854 45.707 62.107 45.849 61.382L56.553 64.277Z" fill="#323948"/>
<path d="M50.078 44.73C48.602 49.384 47.347 54.798 45.885 61.508L59.01 67.304C60.611 68.011 62.478 67.72 63.788 66.559L64.707 65.745L64.446 67.064C64.109 68.764 64.784 70.506 66.179 71.536L69.145 73.726L69.467 73.881C71.883 58.293 78.009 54.955 82.734 44.73C77.647 47.054 68.394 47.708 50.078 44.73Z" fill="#212B3F"/>
<path d="M67.611 54.551C78.464 44.7 82.552 39.659 80.759 32.758C76.289 30.358 71.585 28.792 66.682 27.933C61.383 35.641 64.288 42.745 67.611 54.551Z" fill="#001E3C"/>
<path d="M67.885 52.813C72.561 47.121 76.708 37.907 78.138 31.481C74.176 28.423 73.01 27.579 68.526 28.299C69.367 38.129 68.037 43.106 67.885 52.813Z" fill="#96DDF7"/>
<path d="M70.005 28.886L73.392 33.108L76.413 30.805L79.427 22.101L73.135 19.889L70.005 28.886Z" fill="#CA7052"/>
<path d="M67.885 52.813C68.897 51.608 69.954 50.068 71.034 48.349L73.166 36.489L74.641 35.285L74.462 34.974C73.893 33.983 72.585 33.712 71.67 34.397L71.245 34.715L72.004 36.24L68.018 48.786C67.934 50.161 67.892 51.501 67.885 52.813Z" fill="#B12A3F"/>
<path d="M76.622 30.181L79.096 23.036L72.803 20.825L70.384 27.779C71.826 29.954 74.776 31.121 76.622 30.181Z" fill="#CA7052"/>
<path d="M8.112 101.373L14.535 87.847L19.27 89.724L16.744 96.095L8.112 101.373Z" fill="black"/>
<path d="M28.912 41.365C30.634 38.977 32.447 36.617 34.551 34.385C36.663 32.175 39.102 30.048 42.102 28.497C45.087 26.932 48.594 26.133 51.902 26.095C55.23 26.034 58.331 26.579 61.275 27.224C63.426 27.695 64.788 29.821 64.316 31.972C63.845 34.123 61.719 35.485 59.568 35.013C59.478 34.993 59.39 34.971 59.303 34.946L59.284 34.94C56.717 34.183 54.186 33.589 51.808 33.475C49.425 33.353 47.205 33.697 45.054 34.615C42.905 35.529 40.841 37.034 38.902 38.809C36.965 40.598 35.148 42.641 33.387 44.759L33.35 44.804C32.358 45.997 30.588 46.16 29.395 45.168C28.254 44.22 28.061 42.552 28.912 41.365Z" fill="#323948"/>
<path d="M32.983 42.963C32.568 42.077 31.484 41.379 30.303 41.326C30.084 41.316 29.862 41.327 29.655 41.381C27.698 41.888 27.864 45.547 29.386 46.397C31.807 47.749 33.695 44.483 32.983 42.963Z" fill="#96DDF7"/>
<path d="M26.376 54.316C26.157 54.316 25.939 54.226 25.781 54.051L20.008 47.624C19.713 47.295 19.739 46.789 20.068 46.494L23.392 43.509C23.55 43.368 23.753 43.3 23.97 43.305C24.182 43.316 24.381 43.411 24.522 43.569L30.295 49.997C30.437 50.155 30.511 50.362 30.499 50.574C30.488 50.786 30.393 50.985 30.235 51.127L26.912 54.112C26.759 54.249 26.567 54.316 26.376 54.316ZM21.733 47.15L26.436 52.387L28.569 50.472L23.866 45.235L21.733 47.15Z" fill="#69250C"/>
<path d="M0 54.446L17.354 73.768L30.958 60.582C31.805 59.761 31.852 58.416 31.063 57.539L17.603 42.553C16.814 41.675 15.473 41.577 14.566 42.332L0 54.446Z" fill="#CA7052"/>
<path d="M13.46 69.432L17.354 73.768L30.958 60.582C31.805 59.761 31.852 58.416 31.063 57.539C30.274 56.661 28.933 56.563 28.026 57.318L13.46 69.432Z" fill="#8E4129"/>
<path d="M9.75698 46.3204L9.16177 46.855L22.6213 61.8414L23.2165 61.3068L9.75698 46.3204Z" fill="#8E4129"/>
<path d="M18.684 60.593C18.677 60.593 18.67 60.593 18.663 60.592C18.557 60.586 18.457 60.539 18.386 60.46L17.178 59.115C17.031 58.951 17.044 58.698 17.209 58.55L18.877 57.051C18.956 56.98 19.069 56.938 19.166 56.949C19.272 56.955 19.372 57.002 19.443 57.081L20.651 58.426C20.798 58.59 20.785 58.843 20.621 58.991L18.953 60.49C18.878 60.557 18.782 60.593 18.684 60.593ZM18.041 58.878L18.714 59.628L19.787 58.664L19.114 57.914L18.041 58.878Z" fill="#F6C740"/>
<path d="M11.58 52.683C11.471 52.683 11.361 52.638 11.282 52.55L10.074 51.205C9.92701 51.041 9.94001 50.788 10.105 50.64L11.773 49.141C11.852 49.07 11.963 49.027 12.062 49.039C12.168 49.045 12.268 49.092 12.339 49.171L13.547 50.516C13.694 50.681 13.681 50.933 13.516 51.081L11.848 52.579C11.771 52.649 11.675 52.683 11.58 52.683ZM10.937 50.968L11.61 51.718L12.683 50.754L12.01 50.004L10.937 50.968Z" fill="#F6C740"/>
<path d="M24.715 47.477C24.856 48.202 25.111 48.885 25.511 49.604C25.696 49.937 25.938 50.279 26.305 50.383C27.452 50.706 28.91 49.412 29.722 48.735C30.851 47.793 31.766 46.595 32.371 45.255C32.8 44.306 31.78 43.261 30.94 42.981C29.917 42.64 28.809 42.847 27.823 43.213C26.958 43.534 26.065 43.922 25.327 44.486C25.036 44.709 24.74 44.964 24.631 45.315C24.575 45.496 24.574 45.689 24.574 45.878C24.574 46.448 24.617 46.973 24.715 47.477Z" fill="#EDA679"/>
<path d="M86.44 21.246C86.351 22.63 85.487 23.688 84.508 23.609C83.529 23.53 82.808 22.344 82.897 20.96C82.986 19.576 83.851 18.518 84.829 18.597C85.807 18.676 86.528 19.862 86.44 21.246Z" fill="#EDA679"/>
<path d="M67.833 22.669C68.242 23.994 69.33 24.821 70.263 24.516C71.196 24.211 71.621 22.89 71.212 21.564C70.803 20.239 69.715 19.412 68.782 19.717C67.849 20.023 67.424 21.344 67.833 22.669Z" fill="#EDA679"/>
<path d="M85.093 19.533C85.385 23.902 82.519 31.101 78.407 31.376C74.295 31.651 70.495 24.899 70.202 20.53C69.909 16.161 74.699 11.737 78.811 11.462C82.924 11.186 84.801 15.164 85.093 19.533Z" fill="#EDA679"/>
<path d="M70.527 22.445C70.99 24.93 73.407 26.811 75.641 27.707C75.629 27.666 75.618 27.622 75.609 27.574C75.389 26.437 76.221 25.378 77.309 25.308L80.038 25.132C81.034 25.068 81.911 25.855 82.009 26.911C82.023 27.056 82.026 27.194 82.014 27.315C83.81 25.951 84.491 23.72 85.038 21.474C85.214 24.11 84.685 26.028 84.171 27.494C83.648 28.984 80.805 31.499 78.425 31.659C75.888 31.829 73.505 29.632 72.743 28.912C71.565 27.608 70.642 24.801 70.527 22.445Z" fill="#8E4129"/>
<path d="M81.371 7.92499C78.619 9.33799 74.653 8.91499 73.328 9.81699L72.557 11.922L71.852 11.194C68.769 11.738 68.939 15.946 70.215 20.65C71.611 19.968 72.048 18.314 72.031 16.201C75.841 14.927 79.856 14.544 84.156 15.389L85.106 19.653C84.886 15.885 85.952 10.873 81.371 7.92499Z" fill="#8E4129"/>
<path d="M80.392 26.127L77.164 26.343C76.946 26.358 76.781 26.546 76.796 26.764C76.87 27.873 77.83 28.712 78.939 28.638C80.048 28.564 80.887 27.604 80.813 26.495C80.798 26.277 80.61 26.112 80.392 26.127Z" fill="#EDA679"/>
<path d="M99.016 119.628L83.719 124.005L82.661 119.023L89.364 117.599L99.016 119.628Z" fill="black"/>
<path d="M88.344 58.973C88.486 59.941 87.966 61.121 87.01 61.816C86.833 61.945 86.641 62.058 86.439 62.127C84.526 62.782 82.648 59.638 83.45 58.09C84.725 55.628 88.1 57.313 88.344 58.973Z" fill="#96DDF7"/>
<path d="M79.714 57.401C79.245 57.972 78.881 58.603 78.582 59.37C78.444 59.725 78.334 60.13 78.488 60.478C78.97 61.568 80.897 61.867 81.935 62.061C83.38 62.331 84.886 62.273 86.305 61.885C87.31 61.611 87.465 60.159 87.146 59.333C86.757 58.327 85.891 57.605 84.982 57.079C84.183 56.617 83.315 56.176 82.41 55.967C82.053 55.885 81.667 55.819 81.328 55.959C81.153 56.031 81.004 56.153 80.858 56.274C80.417 56.636 80.04 57.004 79.714 57.401Z" fill="#EDA679"/>
<path d="M85.17 6.241L84.66 0.471985L86.682 0L85.17 6.241Z" fill="#EDA679"/>
<path d="M90.336 9.022L93.574 2.754L94.978 4.19998L90.336 9.022Z" fill="#EDA679"/>
<path d="M91.463 14.02L96.982 9.86301L97.559 12.002L91.463 14.02Z" fill="#EDA679"/>
</svg>
