<svg height="512" viewBox="0 0 24 24" width="512" xmlns="http://www.w3.org/2000/svg"><g id="home"><g><path d="m19.664 8.473-7-6.22c-.379-.338-.949-.338-1.328 0l-7 6.22c-.214.189-.336.461-.336.747v9.78c0 1.654 1.346 3 3 3h2c.552 0 1-.447 1-1v-5h4v5c0 .553.448 1 1 1h2c1.654 0 3-1.346 3-3v-9.78c0-.286-.122-.558-.336-.747z" fill="#64b5f6"/><g><path d="m21 12c-.236 0-.473-.083-.664-.253l-8.336-7.409-8.335 7.409c-.414.369-1.045.33-1.412-.083-.367-.412-.33-1.045.083-1.411l9-8c.379-.338.95-.338 1.329 0l9 8c.413.366.45.999.083 1.411-.198.223-.473.336-.748.336z" fill="#2196f3"/></g></g></g></svg>