<svg width="57" height="139" viewBox="0 0 57 139" fill="none" xmlns="http://www.w3.org/2000/svg">
<path d="M14.0359 63.292C11.6719 61.067 9.52087 58.654 8.16987 56.062C6.77987 53.47 6.35586 50.829 6.86486 48.165C7.39286 45.487 8.80686 42.758 10.5829 40.113C12.3649 37.462 14.4789 34.872 16.6619 32.282L16.6699 32.272C18.0889 30.588 17.8739 28.074 16.1909 26.655C14.5069 25.236 11.9929 25.451 10.5739 27.134C10.5269 27.19 10.4739 27.256 10.4309 27.314C8.32786 30.124 6.21986 33.006 4.32686 36.197C2.46286 39.379 0.734859 42.96 0.152859 47.123C-0.116141 49.195 -0.0351358 51.375 0.435864 53.438C0.893864 55.51 1.75186 57.422 2.77586 59.126C4.84586 62.551 7.55887 65.173 10.3369 67.518C11.5219 68.518 13.2939 68.369 14.2939 67.183C15.2599 66.039 15.1539 64.348 14.0789 63.332L14.0359 63.292Z" fill="#323948"/>
<path d="M39.7069 69.349L12.7539 70.949C10.6869 51.911 10.2449 38.086 12.7539 25.845C22.7299 23.353 32.3459 24.357 41.7069 27.845C38.3529 40.409 37.7439 49.855 39.7069 69.349Z" fill="#323948"/>
<path d="M12.5259 67.909L17.6819 133.886L24.4739 133.535L22.8029 67.378L12.5259 67.909Z" fill="#323948"/>
<path d="M29.3239 68.217L38.4718 134.09L45.2298 133.332L39.5499 67.07L29.3239 68.217Z" fill="#323948"/>
<path d="M38.8528 43.843C38.3198 50.744 38.6128 58.486 39.7068 69.349L12.7538 70.949C11.6258 60.556 10.9828 51.719 11.0388 43.842H38.8528V43.843Z" fill="#001E3C"/>
<path d="M39.3329 65.405L30.0259 66.854C27.8609 67.191 25.6949 66.256 24.4559 64.449L24.2179 64.102C22.9559 66.092 20.5979 67.098 18.2879 66.633L11.7959 61.053C11.0249 53.008 10.9939 50.28 11.0389 43.843H38.8528C38.3858 49.878 38.5519 56.557 39.3329 65.405Z" fill="#323948"/>
<path d="M13.0948 75.188L12.5258 67.909L22.8028 67.378L23.2139 83.638C20.0949 80.522 16.7458 77.655 13.0948 75.188Z" fill="#001E3C"/>
<path d="M42.8858 108.806C39.9018 104.317 36.8338 99.883 33.5488 95.607C33.3798 95.386 33.2068 95.168 33.0358 94.948L29.3239 68.218L39.5499 67.07L43.1638 109.228C43.0708 109.087 42.9788 108.946 42.8858 108.806Z" fill="#001E3C"/>
<path d="M22.8339 49.879C16.3669 36.726 14.4199 30.534 18.6269 24.777C23.6659 24.19 28.6159 24.465 33.4919 25.47C35.5829 34.586 30.2679 40.124 22.8339 49.879Z" fill="#001E3C"/>
<path d="M23.2179 48.161C20.9639 41.148 20.4989 31.054 21.5329 24.553C26.3419 23.167 27.7369 22.811 31.6419 25.131C27.2429 33.962 26.6489 39.079 23.2179 48.161Z" fill="#96DDF7"/>
<path d="M30.0509 25.133L25.3479 27.812L23.3859 24.56L23.7859 15.357L30.4509 15.616L30.0509 25.133Z" fill="#EDA679"/>
<path d="M23.2179 48.161C22.7209 46.669 22.3049 44.847 21.9319 42.851L24.3139 31.038L23.3849 29.375L23.6659 29.151C24.5599 28.439 25.8749 28.668 26.4739 29.642L26.7519 30.094L25.4849 31.232L24.5749 44.365C24.1489 45.678 23.6939 46.939 23.2179 48.161Z" fill="#B12A3F"/>
<path d="M23.4209 23.903L23.7489 16.349L30.4139 16.608L30.1049 23.965C27.9649 25.456 24.7919 25.456 23.4209 23.903Z" fill="#CA7052"/>
<path d="M12.8029 138.084H24.4929V132.99H17.6399L12.8029 138.084Z" fill="black"/>
<path d="M50.0329 138.084H38.3419V132.99H45.1959L50.0329 138.084Z" fill="black"/>
<path d="M16.7079 13.786C16.8889 15.161 17.8229 16.159 18.7939 16.015C19.7649 15.871 20.4059 14.639 20.2249 13.265C20.0439 11.89 19.1109 10.892 18.1399 11.036C17.1679 11.18 16.5269 12.411 16.7079 13.786Z" fill="#EDA679"/>
<path d="M35.4039 13.786C35.2229 15.161 34.2889 16.159 33.3179 16.015C32.3469 15.871 31.7059 14.639 31.8869 13.265C32.0679 11.89 33.0019 10.892 33.9729 11.036C34.9439 11.18 35.5849 12.411 35.4039 13.786Z" fill="#EDA679"/>
<path d="M18.5978 11.831C18.5978 16.21 21.9388 23.201 26.0598 23.201C30.1808 23.201 33.5218 16.21 33.5218 11.831C33.5218 7.45199 30.1808 3.55899 26.0598 3.55899C21.9388 3.55899 18.5978 7.45199 18.5978 11.831Z" fill="#EDA679"/>
<path d="M33.3259 13.764C33.0299 16.275 31.4379 18.569 29.2679 19.612C29.2779 19.571 29.2848 19.525 29.2908 19.477C29.4348 18.328 28.5338 17.327 27.4428 17.33L24.7078 17.336C23.7098 17.338 22.8878 18.182 22.8598 19.243C22.8558 19.389 22.8619 19.526 22.8819 19.646C20.9989 18.405 19.4758 15.969 18.7798 13.764C18.7798 16.405 19.4359 18.284 20.0469 19.712C20.6679 21.164 23.6728 23.484 26.0578 23.484C28.6008 23.484 30.8319 21.132 31.5439 20.364C32.6359 18.984 33.3689 16.122 33.3259 13.764Z" fill="#8E4129"/>
<path d="M21.5369 0C24.3769 1.226 29.1239 1.04399 30.5059 1.85599L31.4159 3.905L32.0709 3.13199C34.3509 3.40599 34.1949 7.293 33.5179 11.952L32.0699 7.478C28.1839 6.462 24.1509 6.347 19.9179 7.478L18.5939 11.952C18.5609 8.177 17.1619 3.248 21.5369 0Z" fill="#8E4129"/>
<path d="M24.4419 18.224H27.6769C27.8949 18.224 28.0719 18.401 28.0719 18.62C28.0719 19.732 27.1709 20.633 26.0589 20.633C24.9469 20.633 24.0459 19.732 24.0459 18.62C24.0469 18.401 24.2239 18.224 24.4419 18.224Z" fill="#EDA679"/>
<path d="M46.7218 68.917C47.4198 65.72 47.9838 62.466 48.2938 59.142C48.6058 55.821 48.6488 52.425 48.3348 49.036C48.0268 45.647 47.3558 42.283 46.4408 39.05C45.5278 35.812 44.3908 32.706 43.2148 29.693C42.4158 27.641 40.1048 26.626 38.0538 27.425C36.0018 28.224 34.9868 30.535 35.7858 32.586C35.8148 32.66 35.8508 32.745 35.8838 32.815C37.1938 35.642 38.4128 38.441 39.3998 41.263C40.3898 44.084 41.1418 46.934 41.5918 49.85C42.5148 55.677 42.1528 61.771 41.2078 67.855L41.2028 67.887C40.9648 69.42 42.0138 70.856 43.5468 71.094C45.0198 71.323 46.4048 70.353 46.7218 68.917Z" fill="#323948"/>
<path d="M42.8119 66.956C43.7479 66.673 44.9919 67.013 45.8209 67.856C45.9749 68.012 46.1149 68.185 46.2129 68.375C47.1429 70.17 44.3099 72.492 42.6609 71.927C40.0379 71.029 41.2069 67.442 42.8119 66.956Z" fill="#96DDF7"/>
<path d="M38.5759 78.923V74.456C38.5759 74.014 38.9339 73.656 39.3759 73.656H48.0149C48.4569 73.656 48.8149 74.014 48.8149 74.456V78.923C48.8149 79.365 48.4569 79.723 48.0149 79.723H39.3759C38.9339 79.723 38.5759 79.365 38.5759 78.923ZM47.2149 75.255H40.1759V78.122H47.2149V75.255Z" fill="#69250C"/>
<path d="M56.3089 99.167H30.3379L31.0579 80.235C31.1029 79.056 32.0719 78.123 33.2519 78.123H53.3949C54.5749 78.123 55.5439 79.056 55.5889 80.235L56.3089 99.167Z" fill="#8E4129"/>
<path d="M36.1659 99.167H30.3379L31.0579 80.235C31.1029 79.056 32.0719 78.123 33.2519 78.123C34.4319 78.123 35.4009 79.056 35.4459 80.235L36.1659 99.167Z" fill="#CA7052"/>
<path d="M55.8409 86.465H35.6979V87.265H55.8409V86.465Z" fill="#69250C"/>
<path d="M39.1489 89.107V86.865C39.1489 86.644 39.3279 86.465 39.5489 86.465H41.3569C41.5779 86.465 41.7569 86.644 41.7569 86.865V89.107C41.7569 89.328 41.5779 89.507 41.3569 89.507H39.5489C39.3279 89.507 39.1489 89.328 39.1489 89.107ZM40.9569 87.265H39.9489V88.707H40.9569V87.265Z" fill="#CA7052"/>
<path d="M49.7809 89.107V86.865C49.7809 86.644 49.9599 86.465 50.1809 86.465H51.9889C52.2099 86.465 52.3889 86.644 52.3889 86.865V89.107C52.3889 89.328 52.2099 89.507 51.9889 89.507H50.1809C49.9599 89.507 49.7809 89.328 49.7809 89.107ZM51.5889 87.265H50.5809V88.707H51.5889V87.265Z" fill="#CA7052"/>
<path d="M44.9788 76.123C44.3448 76.503 43.6669 76.77 42.8649 76.952C42.4939 77.037 42.0769 77.085 41.7549 76.882C40.7479 76.245 40.7358 74.294 40.6978 73.239C40.6438 71.77 40.9238 70.289 41.5168 68.943C41.9368 67.99 43.3949 68.05 44.1649 68.488C45.1019 69.021 45.6888 69.984 46.0748 70.961C46.4138 71.82 46.7229 72.743 46.7959 73.669C46.8249 74.035 46.8328 74.426 46.6438 74.74C46.5468 74.902 46.4038 75.032 46.2628 75.158C45.8388 75.541 45.4198 75.859 44.9788 76.123Z" fill="#EDA679"/>
<path d="M12.5259 68.81L9.83786 67.378L11.7959 61.053L13.1649 62.13L12.5259 68.81Z" fill="#96DDF7"/>
</svg>
