<svg width="47" height="139" viewBox="0 0 47 139" fill="none" xmlns="http://www.w3.org/2000/svg">
<path d="M10.326 69.348L37.279 70.948C39.346 51.91 39.788 38.085 37.279 25.844C27.303 23.352 17.687 24.356 8.32602 27.844C11.679 40.408 12.288 49.854 10.326 69.348Z" fill="#323948"/>
<path d="M38.524 34.236L15.379 40.859H10.891C11.782 48.543 11.579 56.895 10.326 69.348L37.279 70.948C38.888 56.12 39.512 44.454 38.524 34.236Z" fill="#212B3F"/>
<path d="M37.506 67.908L32.351 133.885L25.558 133.534L27.229 67.377L37.506 67.908Z" fill="#323948"/>
<path d="M20.708 68.216L11.561 134.089L4.802 133.331L10.482 67.069L20.708 68.216Z" fill="#323948"/>
<path d="M37.23 138.083H25.539V132.989H32.392L37.23 138.083Z" fill="black"/>
<path d="M0 138.083H11.69V132.989H4.83701L0 138.083Z" fill="black"/>
<path d="M11.18 43.842C11.713 50.743 11.42 58.485 10.326 69.348L37.279 70.948C38.407 60.555 39.05 51.718 38.994 43.841H11.18V43.842Z" fill="#001E3C"/>
<path d="M10.699 65.404L20.006 66.853C22.171 67.19 24.337 66.255 25.576 64.448L25.814 64.102C27.077 66.092 29.434 67.098 31.744 66.633L37.846 65.405C38.617 57.36 39.038 50.28 38.993 43.843H11.179C11.646 49.877 11.48 56.556 10.699 65.404Z" fill="#212B3F"/>
<path d="M36.937 75.187L37.506 67.908L27.229 67.377L26.818 83.637C29.938 80.521 33.286 77.654 36.937 75.187Z" fill="#001E3C"/>
<path d="M7.147 108.804C10.131 104.315 13.199 99.881 16.484 95.606C16.653 95.385 16.826 95.167 16.997 94.947L20.709 68.217L10.483 67.069L6.86902 109.227C6.96102 109.086 7.054 108.945 7.147 108.804Z" fill="#001E3C"/>
<path d="M19.967 43.419C23.187 44.147 26.43 44.671 29.59 44.834C31.164 44.898 32.714 44.864 34.166 44.679C35.611 44.498 36.966 44.132 37.946 43.609C38.081 43.552 38.186 43.479 38.287 43.407C38.388 43.335 38.505 43.274 38.596 43.203C38.752 43.051 38.945 42.923 39.041 42.775C39.283 42.49 39.421 42.252 39.473 41.953C39.612 41.396 39.526 40.446 39.028 39.329C38.556 38.224 37.787 37.045 36.868 35.924C35.946 34.798 34.876 33.715 33.735 32.679L33.713 32.66C32.083 31.18 31.961 28.659 33.441 27.029C34.921 25.399 37.442 25.277 39.072 26.757C39.125 26.806 39.186 26.865 39.237 26.915C40.554 28.256 41.82 29.685 42.976 31.277C44.125 32.873 45.183 34.63 45.934 36.723C46.313 37.759 46.588 38.917 46.691 40.165C46.811 41.402 46.659 42.803 46.217 44.132C45.786 45.479 44.949 46.712 43.994 47.637C43.52 48.131 43.003 48.49 42.485 48.863C42.225 49.034 41.962 49.173 41.699 49.325C41.435 49.477 41.17 49.619 40.908 49.724C38.791 50.669 36.743 51.004 34.792 51.149C32.838 51.282 30.956 51.202 29.119 51.022C25.458 50.621 21.961 49.832 18.558 48.857C17.067 48.43 16.204 46.874 16.631 45.383C17.043 43.946 18.502 43.092 19.943 43.415L19.967 43.419Z" fill="#323948"/>
<path d="M27.417 48.042C33.884 34.889 35.567 30.533 31.36 24.776C26.321 24.189 21.37 24.464 16.495 25.469C14.404 34.585 19.983 38.287 27.417 48.042Z" fill="#001E3C"/>
<path d="M26.814 48.16C29.068 41.147 29.533 31.053 28.499 24.552C23.69 23.166 22.295 22.81 18.39 25.13C22.789 33.961 23.384 39.078 26.814 48.16Z" fill="#96DDF7"/>
<path d="M19.982 25.132L24.685 27.811L26.647 24.559L26.247 15.356L19.582 15.615L19.982 25.132Z" fill="#EDA679"/>
<path d="M26.611 23.902L26.283 16.348L19.618 16.607L19.927 23.963C22.068 25.455 25.24 25.455 26.611 23.902Z" fill="#CA7052"/>
<path d="M36.862 44.531C33.793 45.806 30.679 47.021 27.418 48.042C25.79 48.557 24.111 49.004 22.362 49.36C20.609 49.707 18.779 49.968 16.759 49.922C15.754 49.903 14.682 49.778 13.568 49.491C12.459 49.221 11.275 48.69 10.206 47.933C9.11699 47.179 8.21901 46.111 7.58801 45.022C6.92901 43.918 6.56701 42.796 6.30901 41.726C5.83001 39.583 5.81399 37.626 5.91399 35.77C6.02399 33.914 6.279 32.15 6.587 30.422C6.974 28.254 9.044 26.811 11.212 27.198C13.38 27.585 14.823 29.656 14.436 31.823C14.423 31.899 14.407 31.973 14.39 32.047L14.381 32.083C14.026 33.552 13.731 35.012 13.562 36.41C13.392 37.802 13.365 39.145 13.532 40.208C13.622 40.727 13.739 41.188 13.905 41.499C14.067 41.827 14.212 42.071 14.459 42.265C14.906 42.674 15.853 43.046 17.117 43.139C18.361 43.25 19.799 43.159 21.261 42.956C22.728 42.748 24.233 42.449 25.745 42.068C28.771 41.318 31.817 40.341 34.849 39.289L34.865 39.284C36.331 38.776 37.931 39.552 38.439 41.017C38.927 42.426 38.22 43.963 36.862 44.531Z" fill="#323948"/>
<path d="M25.639 46.997H28.936L25.718 31.038L26.647 29.375L26.366 29.151C25.472 28.439 24.157 28.668 23.558 29.642L23.28 30.094L24.547 31.232L25.639 46.997Z" fill="#B12A3F"/>
<path d="M37.971 40.16C37.248 39.225 35.981 38.896 34.864 39.283L34.848 39.288C31.816 40.34 28.77 41.318 25.744 42.067C24.232 42.448 22.727 42.747 21.26 42.955C19.798 43.158 18.361 43.249 17.116 43.138C16.172 43.068 15.404 42.843 14.89 42.562C12.248 43.171 11.071 46.269 12.643 48.479L13.313 49.421C13.398 49.444 13.483 49.469 13.567 49.49C13.852 49.58 14.12 49.62 14.393 49.674C14.663 49.72 14.944 49.784 15.205 49.809C15.725 49.856 16.264 49.927 16.758 49.921C18.778 49.967 20.607 49.706 22.361 49.359C24.109 49.002 25.789 48.556 27.417 48.041C30.679 47.02 33.792 45.805 36.861 44.53C38.504 43.845 39.194 41.742 37.971 40.16Z" fill="#3D4658"/>
<path d="M33.753 43.008C34.215 43.87 35.335 44.509 36.517 44.499C36.736 44.497 36.958 44.474 37.161 44.409C39.088 43.797 38.726 40.153 37.161 39.386C34.671 38.165 32.961 41.528 33.753 43.008Z" fill="#96DDF7"/>
<path d="M39.752 36.608C40.469 36.788 41.137 37.079 41.834 37.516C42.156 37.719 42.485 37.979 42.569 38.351C42.83 39.514 41.46 40.901 40.741 41.675C39.74 42.752 38.495 43.601 37.124 44.134C36.153 44.512 35.165 43.437 34.93 42.583C34.644 41.544 34.91 40.448 35.328 39.483C35.695 38.636 36.13 37.765 36.733 37.058C36.971 36.779 37.242 36.497 37.598 36.408C37.782 36.362 37.974 36.372 38.163 36.381C38.733 36.412 39.254 36.484 39.752 36.608Z" fill="#EDA679"/>
<path d="M13.307 41.983C12.217 41.307 11.542 40.021 11.466 38.741C11.442 38.345 11.513 37.888 11.846 37.672C12 37.572 12.188 37.54 12.371 37.526C15.364 37.289 17.241 40.665 17.735 43.177C17.735 43.177 15.23 43.177 13.307 41.983Z" fill="#EDA679"/>
<path d="M33.325 13.785C33.144 15.16 32.21 16.158 31.239 16.013C30.268 15.869 29.627 14.637 29.808 13.263C29.989 11.888 30.923 10.89 31.894 11.035C32.865 11.179 33.505 12.41 33.325 13.785Z" fill="#EDA679"/>
<path d="M14.629 13.785C14.81 15.16 15.744 16.158 16.714 16.013C17.685 15.869 18.326 14.637 18.145 13.263C17.964 11.888 17.03 10.89 16.059 11.035C15.088 11.179 14.448 12.41 14.629 13.785Z" fill="#EDA679"/>
<path d="M31.434 11.83C31.434 16.209 28.093 23.2 23.972 23.2C19.851 23.2 16.51 16.209 16.51 11.83C16.51 7.45102 19.851 3.55801 23.972 3.55801C28.094 3.55701 31.434 7.45102 31.434 11.83Z" fill="#EDA679"/>
<path d="M16.706 13.763C17.002 16.274 18.594 18.568 20.763 19.611C20.753 19.57 20.746 19.524 20.74 19.476C20.597 18.327 21.497 17.326 22.588 17.329L25.323 17.335C26.322 17.337 27.143 18.181 27.171 19.242C27.175 19.388 27.169 19.525 27.149 19.645C29.033 18.404 30.555 15.968 31.251 13.763C31.251 16.405 30.595 18.283 29.984 19.711C29.363 21.163 26.358 23.483 23.973 23.483C21.43 23.483 19.199 21.131 18.487 20.363C17.397 18.983 16.663 16.121 16.706 13.763Z" fill="#8E4129"/>
<path d="M28.496 0C25.656 1.226 20.909 1.04402 19.527 1.85602L18.617 3.905L17.962 3.13202C15.682 3.40602 15.838 7.293 16.515 11.952L17.962 7.478C21.849 6.462 25.881 6.347 30.114 7.478L31.438 11.952C31.471 8.176 32.87 3.247 28.496 0Z" fill="#8E4129"/>
<path d="M25.59 18.223H22.355C22.137 18.223 21.96 18.4 21.96 18.619C21.96 19.731 22.861 20.632 23.973 20.632C25.085 20.632 25.986 19.731 25.986 18.619C25.985 18.4 25.808 18.223 25.59 18.223Z" fill="#EDA679"/>
</svg>
