<svg viewBox="0 0 512 512" xmlns="http://www.w3.org/2000/svg"><g id="Layer_2" data-name="Layer 2"><g id="calendar_copy" data-name="calendar copy"><g id="_70" data-name="70"><rect fill="#c9c9c9" height="488.94" rx="80.82" width="512" y="23.06"/><rect fill="#e6e6e6" height="457.94" rx="80.82" width="512" y="23.06"/><path d="m512 103.88v44h-512v-44a80.82 80.82 0 0 1 80.82-80.82h350.36a80.82 80.82 0 0 1 80.82 80.82z" fill="#f00"/><circle cx="118.28" cy="81.17" fill="#d6d6d6" r="37.51"/><rect fill="#565656" height="101.53" rx="22.47" width="44.94" x="95.81"/><circle cx="256" cy="81.17" fill="#d6d6d6" r="37.51"/><rect fill="#565656" height="101.53" rx="22.47" width="44.94" x="233.53"/><circle cx="393.72" cy="81.17" fill="#d6d6d6" r="37.51"/><rect fill="#565656" height="101.53" rx="22.47" width="44.94" x="371.26"/><g fill="#3d3d3d"><rect height="82.72" rx="13.4" width="82.72" x="78.11" y="339.26"/><rect height="82.72" rx="13.4" width="82.72" x="214.64" y="339.26"/><rect height="82.72" rx="13.4" width="82.72" x="351.17" y="339.26"/></g><rect fill="#f00" height="82.72" rx="13.4" width="82.72" x="78.11" y="205.64"/><rect fill="#3d3d3d" height="82.72" rx="13.4" width="82.72" x="214.64" y="205.64"/><rect fill="#3d3d3d" height="82.72" rx="13.4" width="82.72" x="351.17" y="205.64"/></g></g></g></svg>